<svg width="40" height="40" viewBox="0 0 40 40" fill="none" xmlns="http://www.w3.org/2000/svg">
<path d="M15.2551 9.01325C17.3667 5.22659 18.4217 3.33325 20.0001 3.33325C21.5784 3.33325 22.6334 5.22659 24.7451 9.01325L25.2917 9.99325C25.8917 11.0699 26.1917 11.6083 26.6584 11.9633C27.1251 12.3183 27.7084 12.4499 28.8751 12.7133L29.9351 12.9533C34.0351 13.8816 36.0834 14.3449 36.5717 15.9133C37.0584 17.4799 35.6617 19.1149 32.8667 22.3833L32.1434 23.2283C31.3501 24.1566 30.9517 24.6216 30.7734 25.1949C30.5951 25.7699 30.6551 26.3899 30.7751 27.6283L30.8851 28.7566C31.3067 33.1183 31.5184 35.2983 30.2417 36.2666C28.9651 37.2349 27.0451 36.3516 23.2084 34.5849L22.2134 34.1283C21.1234 33.6249 20.5784 33.3749 20.0001 33.3749C19.4217 33.3749 18.8767 33.6249 17.7867 34.1283L16.7934 34.5849C12.9551 36.3516 11.0351 37.2349 9.76007 36.2683C8.48173 35.2983 8.6934 33.1183 9.11507 28.7566L9.22507 27.6299C9.34507 26.3899 9.40507 25.7699 9.22507 25.1966C9.0484 24.6216 8.65007 24.1566 7.85673 23.2299L7.1334 22.3833C4.3384 19.1166 2.94173 17.4816 3.4284 15.9133C3.91507 14.3449 5.96673 13.8799 10.0667 12.9533L11.1267 12.7133C12.2917 12.4499 12.8734 12.3183 13.3417 11.9633C13.8101 11.6083 14.1084 11.0699 14.7084 9.99325L15.2551 9.01325Z" fill="#CEC933"/>
</svg>
