<svg width="36" height="36" viewBox="0 0 36 36" fill="none" xmlns="http://www.w3.org/2000/svg">
<path d="M20.39 27.66L30 18L20.39 8.34002C20.3032 8.22605 20.1929 8.13205 20.0667 8.0644C19.9404 7.99674 19.8011 7.95701 19.6581 7.94789C19.5151 7.93877 19.3719 7.96047 19.238 8.01153C19.1042 8.06259 18.9828 8.1418 18.8823 8.24382C18.7817 8.34584 18.7042 8.46828 18.6551 8.60284C18.6059 8.73741 18.5863 8.88096 18.5975 9.02378C18.6086 9.16661 18.6503 9.30536 18.7198 9.43066C18.7892 9.55595 18.8848 9.66487 19 9.75002L26.19 17L7.06 17C6.79478 17 6.54043 17.1054 6.3529 17.2929C6.16536 17.4804 6.06 17.7348 6.06 18C6.06 18.2652 6.16536 18.5196 6.3529 18.7071C6.54043 18.8947 6.79478 19 7.06 19L26.19 19L19 26.25C18.813 26.4383 18.7085 26.6932 18.7094 26.9586C18.7104 27.2239 18.8167 27.478 19.005 27.665C19.1933 27.852 19.4482 27.9565 19.7135 27.9556C19.9789 27.9546 20.233 27.8483 20.42 27.66L20.39 27.66Z" fill="white"/>
</svg>
